<svg xmlns="http://www.w3.org/2000/svg" xmlns:xlink="http://www.w3.org/1999/xlink" fill="none" version="1.1" width="11.985078811645508" height="13.999999046325684" viewBox="0 0 11.985078811645508 13.999999046325684"><g transform="matrix(1,0,0,-1,0,27.999998092651367)"><path d="M5.99254,27.999999046325684Q5.61809,27.999999046325684,5.37737,27.753899046325685Q5.13664,27.507799046325683,5.13664,27.124999046325684L5.13664,26.605499046325683Q3.63883,26.277299046325684,2.70269,25.10159904632568Q1.73981,23.925779046325683,1.71306,22.312499046325684L1.71306,21.792969046325684Q1.68632,19.824219046325684,0.429221,18.320309046325683L0.215247,18.074219046325684Q-0.13246,17.664059046325683,0.0815138,17.144529046325683Q0.322234,16.652339046325682,0.857169,16.624999046325684L11.1279,16.624999046325684Q11.6628,16.652339046325682,11.9036,17.144529046325683Q12.1175,17.664059046325683,11.7698,18.074219046325684L11.5826,18.320309046325683Q10.2988,19.796869046325682,10.272,21.792969046325684L10.272,22.312499046325684Q10.2453,23.925779046325683,9.28239,25.10159904632568Q8.34625,26.277299046325684,6.84843,26.605499046325683L6.84843,27.124999046325684Q6.84843,27.507799046325683,6.60771,27.753899046325685Q6.36699,27.999999046325684,5.99254,27.999999046325684ZM7.19614,14.519530046325684Q7.70433,15.039059046325683,7.70433,15.749999046325684L5.99254,15.749999046325684L4.28075,15.749999046325684Q4.28075,15.039059046325683,4.78894,14.519530046325684Q5.29713,13.999999046325684,5.99254,13.999999046325684Q6.68796,13.999999046325684,7.19614,14.519530046325684Z" fill="#4B5563" fill-opacity="1" style="mix-blend-mode:passthrough"/></g></svg>