<svg xmlns="http://www.w3.org/2000/svg" xmlns:xlink="http://www.w3.org/1999/xlink" fill="none" version="1.1" width="17.5" height="17.5" viewBox="0 0 17.5 17.5"><g transform="matrix(1,0,0,-1,0,35)"><path d="M1.99219,33.9453L0,30L1.99219,33.9453L0,30L8.125,30L8.125,35L3.67188,35Q2.53906,34.960899999999995,1.99219,33.9453ZM9.375,30L17.5,30L9.375,30L17.5,30L15.5078,33.9453Q14.9609,34.960899999999995,13.8281,35L9.375,35L9.375,30ZM17.5,28.75L0,28.75L17.5,28.75L0,28.75L0,20Q0.0390625,18.94531,0.742188,18.242188Q1.44531,17.5390625,2.5,17.5L15,17.5Q16.0547,17.5390625,16.7578,18.242188Q17.4609,18.94531,17.5,20L17.5,28.75Z" fill="#000000" fill-opacity="1" style="mix-blend-mode:passthrough"/></g></svg>