<svg xmlns="http://www.w3.org/2000/svg" xmlns:xlink="http://www.w3.org/1999/xlink" fill="none" version="1.1" width="17.5" height="28" viewBox="0 0 17.5 28"><defs><clipPath id="master_svg0_2_252"><rect x="0" y="4" width="17.5" height="20" rx="0"/></clipPath></defs><g><rect x="0" y="0" width="17.5" height="28" rx="0" fill="#000000" fill-opacity="0" style="mix-blend-mode:passthrough"/><g clip-path="url(#master_svg0_2_252)"><g transform="matrix(1,0,0,-1,0,48.859375)"><g><path d="M3.75,43.1796875L3.75,41.9296875L3.75,43.1796875L3.75,41.9296875L1.875,41.9296875Q1.09375,41.890587499999995,0.546875,41.3827875Q0.0390625,40.8358875,0,40.0546875L0,38.1796875L17.5,38.1796875L17.5,40.0546875Q17.4609,40.8358875,16.9531,41.3827875Q16.4062,41.890587499999995,15.625,41.9296875L13.75,41.9296875L13.75,43.1796875Q13.75,43.7265875,13.3984,44.078087499999995Q13.0469,44.4296875,12.5,44.4296875Q11.9531,44.4296875,11.6016,44.078087499999995Q11.25,43.7265875,11.25,43.1796875L11.25,41.9296875L6.25,41.9296875L6.25,43.1796875Q6.25,43.7265875,5.89844,44.078087499999995Q5.54688,44.4296875,5,44.4296875Q4.45312,44.4296875,4.10156,44.078087499999995Q3.75,43.7265875,3.75,43.1796875ZM17.5,36.9296875L0,36.9296875L17.5,36.9296875L0,36.9296875L0,26.3046875Q0.0390625,25.5234375,0.546875,24.9765625Q1.09375,24.46875,1.875,24.4296875L15.625,24.4296875Q16.4062,24.46875,16.9531,24.9765625Q17.4609,25.5234375,17.5,26.3046875L17.5,36.9296875Z" fill="#000000" fill-opacity="1" style="mix-blend-mode:passthrough"/></g></g></g></g></svg>