<svg xmlns="http://www.w3.org/2000/svg" xmlns:xlink="http://www.w3.org/1999/xlink" fill="none" version="1.1" width="14" height="14" viewBox="0 0 14 14"><defs><clipPath id="master_svg0_5_711"><rect x="0" y="0" width="14" height="14" rx="0"/></clipPath></defs><g clip-path="url(#master_svg0_5_711)"><g transform="matrix(1,0,0,-1,0,26.8515625)"><g><path d="M4.07422,24.77348125L3.80078,23.92578125L4.07422,24.77348125L3.80078,23.92578125L1.75,23.92578125Q1.01172,23.89848125,0.519531,23.40625125Q0.0273438,22.91406125,0,22.17578125L0,15.17578125Q0.0273438,14.43750125,0.519531,13.94531225Q1.01172,13.45312505,1.75,13.42578125L12.25,13.42578125Q12.9883,13.45312505,13.4805,13.94531225Q13.9727,14.43750125,14,15.17578125L14,22.17578125Q13.9727,22.91406125,13.4805,23.40625125Q12.9883,23.89848125,12.25,23.92578125L10.1992,23.92578125L9.92578,24.77348125Q9.59766,25.62108125,8.66797,25.67578125L5.33203,25.67578125Q4.40234,25.62108125,4.07422,24.77348125ZM7,21.30078125Q7.71094,21.30078125,8.3125,20.94531125Q8.91406,20.58984125,9.26953,19.98828125Q9.625,19.35937125,9.625,18.67578125Q9.625,17.99219125,9.26953,17.36328125Q8.91406,16.76172125,8.3125,16.40625125Q7.71094,16.05078125,7,16.05078125Q6.28906,16.05078125,5.6875,16.40625125Q5.08594,16.76172125,4.73047,17.36328125Q4.375,17.99219125,4.375,18.67578125Q4.375,19.35937125,4.73047,19.98828125Q5.08594,20.58984125,5.6875,20.94531125Q6.28906,21.30078125,7,21.30078125Z" fill="#4B5563" fill-opacity="1" style="mix-blend-mode:passthrough"/></g></g></g></svg>