<svg xmlns="http://www.w3.org/2000/svg" xmlns:xlink="http://www.w3.org/1999/xlink" fill="none" version="1.1" width="24.8447208404541" height="20" viewBox="0 0 24.8447208404541 20"><g transform="matrix(1,0,0,-1,0,40)"><path d="M8.07453,26.25Q11.4907,26.32812,13.7811,28.28125Q16.0714,30.1953,16.1491,33.125Q16.0714,36.0547,13.7811,37.9688Q11.4907,39.9219,8.07453,40Q4.65839,39.9219,2.36801,37.9688Q0.0776398,36.0547,0,33.125Q0.0388199,30.8203,1.5528,29.10156Q1.31988,28.51563,0.970497,28.125Q0.698758,27.77344,0.465839,27.57812Q0.349379,27.46094,0.310559,27.42188Q0.271739,27.38281,0.271739,27.38281L0.232919,27.38281Q-0.0776398,27.10938,0.0388199,26.67969Q0.194099,26.28906,0.621118,26.25Q1.94099,26.28906,3.02795,26.71875Q3.57143,26.95312,3.99845,27.1875Q5.82298,26.28906,8.07453,26.25ZM17.3913,33.125Q17.2748,29.76562,14.9068,27.57812Q12.5,25.39062,9.00621,25.03906Q9.74379,22.8125,11.8401,21.44531Q13.9363,20.0390625,16.7702,20Q19.0217,20.0390625,20.8463,20.9375Q21.2733,20.703125,21.8168,20.46875Q22.9037,20.0390625,24.2236,20Q24.6506,20.0390625,24.8059,20.429688Q24.9224,20.859375,24.573,21.13281L24.573,21.17188Q24.5342,21.17188,24.5342,21.17188Q24.4953,21.21094,24.3789,21.32812Q24.146,21.52344,23.8742,21.875Q23.5248,22.30469,23.2919,22.85156Q24.8059,24.57031,24.8447,26.875Q24.7671,29.64844,22.6708,31.5625Q20.5745,33.4766,17.3525,33.75Q17.3913,33.4375,17.3913,33.125Z" fill="#000000" fill-opacity="1" style="mix-blend-mode:passthrough"/></g></svg>