<svg xmlns="http://www.w3.org/2000/svg" xmlns:xlink="http://www.w3.org/1999/xlink" fill="none" version="1.1" width="25" height="15" viewBox="0 0 25 15"><g transform="matrix(1,0,0,-1,0,30)"><path d="M7.5,30Q4.29688,29.9219,2.1875,27.8125Q0.078125,25.7031,0,22.5Q0.078125,19.29688,2.1875,17.1875Q4.29688,15.078125,7.5,15L17.5,15Q20.7031,15.078125,22.8125,17.1875Q24.9219,19.29688,25,22.5Q24.9219,25.7031,22.8125,27.8125Q20.7031,29.9219,17.5,30L7.5,30ZM19.375,25.9375Q20.2734,25.898400000000002,20.7422,25.1562Q21.1328,24.375,20.7422,23.59375Q20.2734,22.85156,19.375,22.8125Q18.4766,22.85156,18.0078,23.59375Q17.6172,24.375,18.0078,25.1562Q18.4766,25.898400000000002,19.375,25.9375ZM15.3125,20.625Q15.3516,21.52344,16.0938,21.99219Q16.875,22.38281,17.6562,21.99219Q18.3984,21.52344,18.4375,20.625Q18.3984,19.72656,17.6562,19.25781Q16.875,18.86719,16.0938,19.25781Q15.3516,19.72656,15.3125,20.625ZM6.5625,24.6875Q6.64062,25.5469,7.5,25.625Q8.35938,25.5469,8.4375,24.6875L8.4375,23.4375L9.6875,23.4375Q10.5469,23.35938,10.625,22.5Q10.5469,21.64062,9.6875,21.5625L8.4375,21.5625L8.4375,20.3125Q8.35938,19.45312,7.5,19.375Q6.64062,19.45312,6.5625,20.3125L6.5625,21.5625L5.3125,21.5625Q4.45312,21.64062,4.375,22.5Q4.45312,23.35938,5.3125,23.4375L6.5625,23.4375L6.5625,24.6875Z" fill="#000000" fill-opacity="1" style="mix-blend-mode:passthrough"/></g></svg>