<svg xmlns="http://www.w3.org/2000/svg" xmlns:xlink="http://www.w3.org/1999/xlink" fill="none" version="1.1" width="64" height="64" viewBox="0 0 64 64"><defs><clipPath id="master_svg0_10_1362"><rect x="18.875" y="17" width="26.25" height="30" rx="0"/></clipPath></defs><g><rect x="0" y="0" width="64" height="64" rx="32" fill="#E5E7EB" fill-opacity="1" style="mix-blend-mode:passthrough"/><g><rect x="18.875" y="14" width="26.25" height="36" rx="0" fill="#000000" fill-opacity="0" style="mix-blend-mode:passthrough"/><g clip-path="url(#master_svg0_10_1362)"><g transform="matrix(1,0,0,-1,0,95.2890625)"><g><path d="M32,62.64453125Q34.0508,62.64453125,35.75,63.64063125Q37.449200000000005,64.63673125,38.5039,66.39453125Q39.5,68.15233125,39.5,70.14453125Q39.5,72.13673125,38.5039,73.89453125Q37.449200000000005,75.65233125,35.75,76.64843125Q34.0508,77.64453125,32,77.64453125Q29.949199999999998,77.64453125,28.25,76.64843125Q26.55078,75.65233125,25.49609,73.89453125Q24.5,72.13673125,24.5,70.14453125Q24.5,68.15233125,25.49609,66.39453125Q26.55078,64.63673125,28.25,63.64063125Q29.949199999999998,62.64453125,32,62.64453125ZM29.3047,59.83203125Q24.91016,59.71483125,21.92188,56.78515125Q18.992188,53.79687125,18.875,49.40234125Q18.875,48.64062525,19.402344,48.17187525Q19.871094,47.64453125,20.63281,47.64453125L43.3672,47.64453125Q44.1289,47.64453125,44.5977,48.17187525Q45.125,48.64062525,45.125,49.40234125Q45.0078,53.79687125,42.0781,56.78515125Q39.0898,59.71483125,34.6953,59.83203125L29.3047,59.83203125Z" fill="#9CA3AF" fill-opacity="1" style="mix-blend-mode:passthrough"/></g></g></g></g></g></svg>